HIERARCHY
ROOT Hips
{
	OFFSET 0.0000 0.0000 0.0000
	CHANNELS 6 Xposition Yposition Zposition Zrotation Xrotation Yrotation
	JOINT Ab
	{
		OFFSET -0.0000 8.0846 -0.0000
		CHANNELS 3 Zrotation Xrotation Yrotation
		JOINT Chest
		{
			OFFSET -0.0000 25.0068 -0.0000
			CHANNELS 3 Zrotation Xrotation Yrotation
			JOINT Neck
			{
				OFFSET -0.0000 25.0068 0.0000
				CHANNELS 3 Zrotation Xrotation Yrotation
				JOINT Head
				{
					OFFSET -0.0000 10.7556 0.0000
					CHANNELS 3 Zrotation Xrotation Yrotation
					End Site
					{
						OFFSET -0.0000 16.6222 0.0000
					}
				}
			}
			JOINT LeftCollar
			{
				OFFSET -0.0000 25.0068 0.0000
				CHANNELS 3 Zrotation Xrotation Yrotation
				JOINT LeftShoulder
				{
					OFFSET 19.5556 -0.0000 0.0000
					CHANNELS 3 Zrotation Xrotation Yrotation
					JOINT LeftElbow
					{
						OFFSET 27.1828 0.0000 0.0000
						CHANNELS 3 Zrotation Xrotation Yrotation
						JOINT LeftWrist
						{
							OFFSET 23.3157 0.0000 0.0000
							CHANNELS 3 Zrotation Xrotation Yrotation
							End Site
							{
								OFFSET 0.0000 -14.6667 0.0000
							}
						}
					}
				}
			}
			JOINT RightCollar
			{
				OFFSET -0.0000 25.0068 0.0000
				CHANNELS 3 Zrotation Xrotation Yrotation
				JOINT RightShoulder
				{
					OFFSET -19.5556 0.0000 0.0000
					CHANNELS 3 Zrotation Xrotation Yrotation
					JOINT RightElbow
					{
						OFFSET -27.1828 0.0000 0.0000
						CHANNELS 3 Zrotation Xrotation Yrotation
						JOINT RightWrist
						{
							OFFSET -23.3157 0.0000 0.0000
							CHANNELS 3 Zrotation Xrotation Yrotation
							End Site
							{
								OFFSET -0.0000 -14.6667 0.0000
							}
						}
					}
				}
			}
		}
	}
	JOINT LeftHip
	{
		OFFSET 11.7333 0.0000 0.0000
		CHANNELS 3 Zrotation Xrotation Yrotation
		JOINT LeftKnee
		{
			OFFSET -0.0000 -40.8688 0.0000
			CHANNELS 3 Zrotation Xrotation Yrotation
			JOINT LeftAnkle
			{
				OFFSET -0.0000 -44.4337 0.0000
				CHANNELS 3 Zrotation Xrotation Yrotation
				End Site
				{
					OFFSET -0.0000 -4.8889 16.6222
				}
			}
		}
	}
	JOINT RightHip
	{
		OFFSET -11.7333 0.0000 0.0000
		CHANNELS 3 Zrotation Xrotation Yrotation
		JOINT RightKnee
		{
			OFFSET -0.0000 -40.8688 0.0000
			CHANNELS 3 Zrotation Xrotation Yrotation
			JOINT RightAnkle
			{
				OFFSET -0.0000 -44.4337 0.0000
				CHANNELS 3 Zrotation Xrotation Yrotation
				End Site
				{
					OFFSET -0.0000 -4.8889 16.6222
				}
			}
		}
	}
}
MOTION
Frames: 23
Frame Time: 0.010000
-3.7645 88.8129 191.4383 2.5448 358.6731 174.6983 2.7165 358.3242 358.4079 358.4839 12.8206 358.5384 1.9451 339.5522 1.1265 3.1873 4.4178 0.6512 339.0801 358.4495 8.3610 301.3953 32.2461 353.8364 18.1183 353.8899 322.9693 80.9236 1.1017 341.9702 22.3198 359.2688 356.2951 59.4076 41.5941 9.0956 337.6647 354.0250 29.6552 278.9898 352.8158 21.6931 1.9746 357.5381 358.3795 359.0032 10.3077 359.7395 359.9189 351.9526 22.7585 2.3901 351.8959 359.6388 359.4274 17.2186 9.4753 355.0173 346.1757 338.1313 
-3.7696 88.8138 191.4353 2.5411 358.6731 174.6816 2.7168 358.3345 358.4054 358.4804 12.8230 358.5362 1.9478 339.5544 1.1349 3.1459 4.4872 0.6598 339.0794 358.4387 8.3886 301.3715 32.3948 353.8556 18.1950 353.8611 322.9568 80.8649 1.0759 342.0200 22.3192 359.2689 356.2948 59.4202 41.5637 9.0754 337.6978 354.0213 29.6706 278.9612 352.8178 21.7383 1.9662 357.5426 358.3775 359.0039 10.3098 359.7587 359.9503 351.9546 22.7599 2.3844 351.8918 359.6582 359.4285 17.2345 9.4821 355.0172 346.1515 338.1145 
-3.7741 88.8142 191.4354 2.5393 358.6646 174.6677 2.7215 358.3424 358.3972 358.4777 12.8222 358.5284 1.9376 339.5542 1.1372 3.1174 4.5492 0.6673 339.0709 358.4484 8.4384 301.3824 32.5846 353.8283 18.2609 353.8438 322.9836 80.8169 1.0575 342.1164 22.3195 359.2603 356.2836 59.4139 41.5645 9.0739 337.6969 354.0192 29.6814 278.9870 352.8342 21.7372 1.9632 357.5367 358.3878 358.9991 10.3113 359.7486 359.9583 351.9480 22.7823 2.3841 351.8755 359.6699 359.4263 17.2438 9.4817 355.0135 346.1419 338.1079 
-3.7791 88.8144 191.4326 2.5378 358.6679 174.6560 2.7216 358.3685 358.3923 358.4837 12.8080 358.5251 1.8878 339.5582 1.1259 3.1425 4.6085 0.6696 339.0529 358.4413 8.4559 301.3731 32.6589 353.8561 18.2794 353.8440 322.9296 80.7499 1.1025 342.1618 22.3203 359.2518 356.2624 59.3916 41.5707 9.0801 337.7125 354.0072 29.7013 279.0053 352.9236 21.7378 1.9592 357.5586 358.3949 358.9971 10.2815 359.7735 359.9534 351.9574 22.7605 2.3791 351.8753 359.6984 359.4346 17.2477 9.4903 355.0079 346.1327 338.0760 
-3.7844 88.8150 191.4297 2.5386 358.6712 174.6490 2.7262 358.3831 358.3880 358.4822 12.8146 358.5210 1.8833 339.5573 1.1456 3.1076 4.6650 0.6613 339.0470 358.4408 8.4787 301.3678 32.7718 353.8498 18.3109 353.8303 322.9469 80.7294 1.0166 342.2068 22.3200 359.2543 356.2470 59.3889 41.5461 9.0827 337.7409 354.0266 29.7060 278.9889 352.9211 21.7608 1.9535 357.5691 358.3921 359.0059 10.2743 359.7417 359.9577 351.9558 22.7908 2.3791 351.8695 359.6938 359.4249 17.2740 9.4983 355.0579 346.1031 338.0946 
-3.7881 88.8159 191.4279 2.5366 358.6704 174.6430 2.7260 358.3944 358.3807 358.4847 12.8181 358.5141 1.8737 339.5609 1.1599 3.0921 4.7196 0.6721 339.0438 358.4334 8.4904 301.3404 32.8307 353.8704 18.3047 353.8214 322.9345 80.7351 0.9740 342.2219 22.3168 359.2531 356.2446 59.4047 41.5313 9.0662 337.7300 354.0274 29.7096 278.9761 352.9210 21.7848 1.9487 357.5752 358.4036 359.0092 10.2657 359.7360 359.9559 351.9548 22.7938 2.3776 351.8609 359.7057 359.4224 17.2919 9.5033 355.0582 346.0870 338.0879 
-3.7919 88.8152 191.4225 2.5375 358.6790 174.6387 2.7239 358.4158 358.3775 358.4929 12.8182 358.5095 1.8638 339.5455 1.1527 3.0445 4.8035 0.6896 339.0329 358.4151 8.5096 301.3303 32.9733 353.8917 18.3701 353.8032 322.9440 80.7160 0.8891 342.2908 22.3115 359.2591 356.2315 59.3968 41.5285 9.0724 337.7464 354.0231 29.6958 278.9522 352.9208 21.8159 1.9443 357.5893 358.4086 359.0127 10.2637 359.7491 359.9433 351.9474 22.7688 2.3760 351.8699 359.7101 359.4235 17.2968 9.4738 355.0185 346.0646 338.0980 
-3.7962 88.8157 191.4180 2.5360 358.6780 174.6313 2.7387 358.4278 358.3647 358.4739 12.8146 358.4993 1.8742 339.5653 1.1722 3.0241 4.8332 0.7138 339.0268 358.4106 8.5155 301.3235 33.0222 353.9404 18.3233 353.8338 322.9095 80.7736 0.8807 342.2926 22.3186 359.2504 356.2288 59.3978 41.5181 9.0523 337.7412 354.0200 29.7195 278.9676 352.9387 21.8118 1.9405 357.5918 358.3911 359.0037 10.2639 359.7773 359.9477 351.9446 22.7754 2.3738 351.8686 359.7285 359.4220 17.3022 9.4782 355.0645 346.0362 338.0994 
-3.8001 88.8162 191.4154 2.5329 358.6728 174.6285 2.7436 358.4367 358.3553 358.4678 12.8137 358.4908 1.8694 339.5653 1.1835 3.0181 4.8872 0.7264 339.0232 358.4178 8.5123 301.3025 33.0386 353.9766 18.2771 353.8559 322.8733 80.8366 0.8707 342.2688 22.3246 359.2614 356.2193 59.3687 41.5056 9.0635 337.7850 354.0436 29.7147 278.9531 352.9443 21.8258 1.9342 357.5840 358.3878 359.0055 10.2725 359.7670 359.9632 351.9419 22.7901 2.3679 351.8578 359.7357 359.4250 17.3167 9.5022 355.2922 345.8768 337.9926 
-3.8042 88.8171 191.4123 2.5252 358.6677 174.6271 2.7343 358.4390 358.3501 358.4778 12.8242 358.4830 1.8610 339.5643 1.1934 2.9884 4.9302 0.7339 339.0283 358.4104 8.4970 301.2278 32.9562 354.0302 18.2068 353.8627 322.8094 80.8352 0.9016 342.1376 22.3174 359.2444 356.2255 59.3806 41.5068 9.0404 337.7329 354.0041 29.7311 279.0126 352.9629 21.8149 1.9262 357.5831 358.3818 359.0013 10.2691 359.7586 359.9831 351.9412 22.8137 2.3617 351.8401 359.7024 359.4069 17.3433 9.5337 355.0985 345.9813 338.0684 
-3.8065 88.8183 191.4061 2.5265 358.6781 174.6286 2.7388 358.4645 358.3441 358.4732 12.8215 358.4795 1.8851 339.5944 1.2225 2.9457 4.9143 0.7561 339.0315 358.4324 8.4854 301.1901 32.8872 354.0460 18.0895 353.8908 322.7981 80.8962 0.8847 342.0464 22.3185 359.2510 356.2187 59.3886 41.4828 9.0182 337.6332 353.9843 29.7385 279.2583 353.0284 21.3644 1.9245 357.5973 358.3766 359.0006 10.2692 359.7713 359.9591 351.9314 22.7963 2.3610 351.8512 359.7171 359.4122 17.3522 9.5274 355.1309 345.9391 338.0315 
-3.8080 88.8187 191.4024 2.5267 358.6770 174.6301 2.7415 358.4819 358.3390 358.4707 12.8130 358.4760 1.9053 339.6224 1.2478 2.9093 4.9005 0.7768 339.0393 358.4291 8.4870 301.1449 32.8616 354.0680 18.0494 353.8941 322.7496 80.9026 0.8926 342.0324 22.3202 359.2529 356.2075 59.3828 41.4664 9.0091 337.5537 353.9656 29.7411 279.4224 353.0519 20.9980 1.9221 357.5923 358.3836 359.0051 10.2772 359.7899 359.9439 351.9227 22.7658 2.3645 351.8423 359.7323 359.4100 17.3714 9.5096 355.1745 345.8946 338.0125 
-3.8109 88.8199 191.3990 2.5257 358.6746 174.6384 2.7458 358.4972 358.3312 358.4633 12.8032 358.4683 1.9189 339.6426 1.2667 2.8783 4.8969 0.7954 339.0425 358.4175 8.5050 301.1276 32.9736 354.0836 18.0767 353.8756 322.7634 80.8481 0.8724 342.0612 22.3209 359.2500 356.1942 59.3740 41.4668 9.0031 337.5434 353.9563 29.7339 279.4368 353.0444 20.9516 1.9187 357.5813 358.3776 358.9962 10.2948 359.8079 359.9543 351.9248 22.7623 2.3626 351.8347 359.7213 359.4029 17.3882 9.5243 355.1707 345.8725 338.0046 
-3.8128 88.8204 191.3912 2.5226 358.6820 174.6344 2.7406 358.5123 358.3338 358.4641 12.8131 358.4708 1.9307 339.6500 1.2836 2.8506 4.9035 0.8126 339.0354 358.4204 8.5507 301.1406 33.1054 354.0438 18.0995 353.8571 322.8075 80.8566 0.8270 342.0948 22.3121 359.2495 356.1945 59.3995 41.4440 8.9726 337.5419 353.9553 29.7373 279.4354 353.0409 20.9328 1.9128 357.5935 358.3713 358.9979 10.2952 359.8032 359.9349 351.9089 22.7680 2.3583 351.8419 359.7420 359.4070 17.3990 9.5156 355.1734 345.8550 337.9961 
-3.8138 88.8200 191.3828 2.5220 358.6896 174.6303 2.7349 358.5275 358.3388 358.4656 12.8212 358.4764 1.9459 339.6621 1.3000 2.8217 4.9048 0.8286 339.0326 358.3953 8.5882 301.1374 33.2549 354.0372 18.1802 353.8410 322.8361 80.8308 0.8008 342.1774 22.3019 359.2464 356.1909 59.4171 41.4356 8.9499 337.5465 353.9550 29.7412 279.4254 353.0398 20.9395 1.9125 357.6071 358.3732 358.9921 10.2966 359.7964 359.9596 351.9052 22.7848 2.3596 351.8491 359.7580 359.4051 17.4104 9.5160 355.1935 345.8152 337.9801 
-3.8153 88.8200 191.3769 2.5214 358.6907 174.6324 2.7417 358.5427 358.3372 358.4491 12.8164 358.4765 1.9689 339.6899 1.3159 2.7889 4.8899 0.8424 339.0336 358.3934 8.6117 301.1379 33.3582 354.0356 18.1866 353.8376 322.8799 80.8895 0.7707 342.2500 22.3087 359.2420 356.1819 59.4251 41.4209 8.9199 337.5576 353.9731 29.7569 279.4229 353.0591 20.9499 1.9154 357.6115 358.3507 358.9800 10.2991 359.7831 359.9800 351.9032 22.8177 2.3596 351.8442 359.7708 359.4046 17.4336 9.5307 355.2761 345.7481 337.9608 
-3.8167 88.8199 191.3687 2.5173 358.6913 174.6384 2.7378 358.5470 358.3379 358.4460 12.8276 358.4795 1.9832 339.6931 1.3235 2.7601 4.8920 0.8479 339.0290 358.3992 8.6210 301.1284 33.4241 354.0407 18.1872 353.8408 322.9282 81.0812 0.6840 342.3499 22.3023 359.2395 356.1755 59.4323 41.4019 8.8965 337.5866 353.9682 29.7689 279.3782 353.0036 20.9710 1.9068 357.6076 358.3503 358.9873 10.3142 359.7897 359.9581 351.8931 22.8001 2.3551 351.8453 359.7729 359.4030 17.4426 9.5100 355.2929 345.7211 337.9775 
-3.8163 88.8192 191.3629 2.5178 358.6908 174.6472 2.7332 358.5568 358.3422 358.4481 12.8353 358.4834 1.9898 339.6887 1.3239 2.7375 4.9040 0.8467 339.0286 358.4152 8.6035 301.0935 33.3334 354.0660 18.1074 353.8847 322.9298 81.2946 0.6228 342.3535 22.2938 359.2434 356.1698 59.4456 41.3846 8.8747 337.5946 353.9715 29.7912 279.3970 353.0053 20.9752 1.9084 357.6029 358.3516 358.9873 10.3266 359.7785 0.0153 351.8931 22.8127 2.3574 351.8449 359.7827 359.4008 17.4505 9.4997 355.2703 345.7261 337.9713 
-3.8171 88.8185 191.3572 2.5170 358.6845 174.6551 2.7260 358.5646 358.3544 358.4497 12.8377 358.4965 1.9813 339.6814 1.3105 2.7286 4.9308 0.8332 339.0244 358.4330 8.5724 301.0533 33.1873 354.0965 18.0167 353.9220 322.9242 81.4805 0.5814 342.2760 22.2869 359.2430 356.1513 59.4626 41.3688 8.8543 337.5968 353.9536 29.7779 279.4030 352.9267 20.9290 1.9056 357.5952 358.3610 358.9918 10.3325 359.7697 359.9653 351.8837 22.7945 2.3571 351.8298 359.7833 359.3996 17.4779 9.5029 355.1840 345.7630 337.9512 
-3.8162 88.8175 191.3465 2.5132 358.6923 174.6640 2.7193 358.5760 358.3595 358.4454 12.8468 358.5019 1.9981 339.6885 1.3084 2.7018 4.9293 0.8293 339.0268 358.4271 8.5757 301.0317 33.2338 354.1009 18.0890 353.8864 322.9711 81.5580 0.5199 342.3671 22.2879 359.2525 356.1328 59.4522 41.3533 8.8545 337.5746 353.9680 29.7275 279.4239 352.7245 20.7705 1.9020 357.6040 358.3636 358.9885 10.3396 359.7768 359.9617 351.8689 22.7795 2.3524 351.8432 359.7923 359.4032 17.4843 9.4713 355.2268 345.7214 337.9659 
-3.8165 88.8163 191.3361 2.5090 358.6986 174.6786 2.7131 358.5828 358.3619 358.4431 12.8610 358.5048 2.0148 339.6954 1.3078 2.6783 4.9246 0.8272 339.0301 358.4157 8.5677 300.9888 33.2038 354.1240 18.1407 353.8725 322.9942 81.5841 0.4825 342.3839 22.2835 359.2367 356.1178 59.4658 41.3631 8.8329 337.5613 353.9651 29.8345 279.3948 352.9596 20.9404 1.8962 357.6108 358.3470 358.9854 10.3459 359.7891 359.9816 351.8600 22.7705 2.3456 351.8542 359.7867 359.4066 17.4908 9.4571 355.2809 345.6688 337.9726 
-3.8145 88.8156 191.3260 2.5107 358.7012 174.6978 2.7049 358.5862 358.3638 358.4532 12.8759 358.5063 2.0030 339.6857 1.2999 2.6857 4.9413 0.8199 339.0362 358.4215 8.5314 300.9187 33.0211 354.1754 18.0768 353.9077 322.9984 81.6799 0.4654 342.2813 22.2822 359.2408 356.0981 59.4465 41.3459 8.8326 337.6220 353.9855 29.8316 279.3471 352.9532 20.9659 1.9022 357.6117 358.3202 358.9747 10.3580 359.7599 359.9989 351.8576 22.8148 2.3464 351.8602 359.7918 359.4111 17.4997 9.4455 355.2854 345.6546 337.9600 
-3.8143 88.8151 191.3147 2.5080 358.7008 174.7135 2.7111 358.5914 358.3635 358.4373 12.8766 358.5071 2.0147 339.7024 1.3072 2.6788 4.9254 0.8265 339.0462 358.4291 8.5191 300.8644 32.9081 354.2044 18.0920 353.8998 323.0200 81.6648 0.4146 342.2236 22.2822 359.2277 356.0965 59.4709 41.3366 8.7911 337.6355 353.9585 29.8509 279.3211 352.9705 20.9964 1.8991 357.6157 358.3294 358.9764 10.3564 359.7593 359.9991 351.8517 22.7947 2.3440 351.8637 359.7978 359.4114 17.5083 9.4228 355.2760 345.6449 337.9586 
